# xmcd CD database file
#
# Track frame offsets:
#	150
#	11184
#	28538
#	39962
#	55227
#	67300
#	84364
#	100520
#	113273
#	132621
#	145970
#	159375
#	174754
#	190716
#	204650
#	216074
#	245312
#
# Disc length: 3302 seconds
#
# Revision: 0
# Processed by: cddbd v1.5.2PL0 Copyright (c) Steve Scherf et al.
# Submitted via: CDex 1.81
#
DISCID=de0ce411
DTITLE=DM Bob and Jem Finer - Pirana
DYEAR=2008
DGENRE=Country
TTITLE0=Your Heat'n Chart
TTITLE1=Mini Bar
TTITLE2=64 Squares
TTITLE3=Driving School
TTITLE4=Prisco
TTITLE5=Her Dog Barfed Up a Mojo
TTITLE6=She's So Strange
TTITLE7=Gossip
TTITLE8=Lightnin' Rod
TTITLE9=Honky Tonk Song
TTITLE10=Little Red Saucer
TTITLE11=Airstream Shack
TTITLE12=Fluorescent Light on My Taco
TTITLE13=Going Down to TX
TTITLE14=Only Sad Song
TTITLE15=Something's Wrong with This Picture
TTITLE16=CD Covers
EXTD=YEAR: 2008
EXTT0=
EXTT1=
EXTT2=
EXTT3=
EXTT4=
EXTT5=
EXTT6=
EXTT7=
EXTT8=
EXTT9=
EXTT10=
EXTT11=
EXTT12=
EXTT13=
EXTT14=
EXTT15=
EXTT16=
PLAYORDER=
